<svg xmlns="http://www.w3.org/2000/svg" xmlns:xlink="http://www.w3.org/1999/xlink" width="500" zoomAndPan="magnify" viewBox="0 0 375 374.999991" height="500" preserveAspectRatio="xMidYMid meet" version="1.0"><defs><clipPath id="66ac87185b"><path d="M 72.878906 30.417969 L 225.878906 30.417969 L 225.878906 206.667969 L 72.878906 206.667969 Z M 72.878906 30.417969 " clip-rule="nonzero"/></clipPath><clipPath id="a7e77e0b4a"><path d="M 149.441406 168.070312 L 302.441406 168.070312 L 302.441406 296 L 149.441406 296 Z M 149.441406 168.070312 " clip-rule="nonzero"/></clipPath><clipPath id="1c78462dcd"><path d="M 149.441406 217 L 302.441406 217 L 302.441406 344.320312 L 149.441406 344.320312 Z M 149.441406 217 " clip-rule="nonzero"/></clipPath></defs><g clip-path="url(#66ac87185b)"><path fill="#000000" d="M 149.328125 30.417969 L 72.894531 74.542969 L 72.894531 162.800781 L 149.328125 206.925781 L 225.757812 162.800781 L 225.757812 106.671875 L 170.109375 106.671875 L 128.546875 130.667969 L 201.761719 130.667969 L 201.761719 148.945312 L 149.328125 179.21875 L 96.890625 148.945312 L 96.890625 88.398438 L 149.328125 58.125 L 201.761719 88.398438 L 225.757812 74.542969 Z M 149.328125 30.417969 " fill-opacity="1" fill-rule="evenodd"/></g><g clip-path="url(#a7e77e0b4a)"><path fill="#004aad" d="M 302.113281 212.238281 L 302.113281 238.667969 L 225.777344 194.59375 L 181.660156 220.070312 L 172.324219 225.453125 L 172.324219 237.625 L 192.226562 249.117188 L 248.792969 281.769531 L 225.777344 295.054688 L 149.4375 250.75 L 149.4375 212.238281 L 225.777344 168.160156 Z M 302.113281 212.238281 " fill-opacity="1" fill-rule="nonzero"/></g><g clip-path="url(#1c78462dcd)"><path fill="#000000" d="M 225.777344 217.570312 L 302.113281 261.667969 L 302.113281 300.386719 L 225.777344 344.476562 L 149.4375 300.386719 L 149.4375 273.777344 L 225.777344 318.042969 L 268.695312 293.261719 L 279.226562 287.183594 L 279.226562 276.394531 L 259.324219 264.910156 L 201.5625 231.554688 Z M 225.777344 217.570312 " fill-opacity="1" fill-rule="nonzero"/></g></svg>